<?xml version="1.0" standalone="no"?>
<!DOCTYPE svg PUBLIC "-//W3C//DTD SVG 1.0//EN" "http://www.w3.org/TR/2001/REC-SVG-20010904/DTD/svg10.dtd">
<svg xmlns="http://www.w3.org/2000/svg" xmlns:xlink="http://www.w3.org/1999/xlink" id="body_1" width="2727" height="966">

<g transform="matrix(3.4500003 0 0 3.4500003 1.4998993 -0)">
	<g transform="matrix(0.1 0 -0 -0.1 0 280)">
        <path d="M2035 2606C 2017 2578 2022 2545 2046 2536C 2066 2528 2103 2548 2094 2561C 2090 2567 2083 2567 2074 2559C 2055 2544 2036 2560 2042 2586C 2045 2600 2054 2604 2074 2603C 2106 2601 2105 2623 2072 2628C 2059 2630 2046 2622 2035 2606z" stroke="none" fill="#000000" fill-rule="nonzero" />
        <path d="M2138 2618C 2113 2598 2107 2564 2125 2546C 2145 2526 2150 2526 2178 2546C 2202 2563 2207 2599 2188 2618C 2173 2633 2158 2633 2138 2618zM2180 2585C 2180 2557 2155 2541 2138 2558C 2123 2573 2139 2610 2161 2610C 2175 2610 2180 2603 2180 2585z" stroke="none" fill="#000000" fill-rule="nonzero" />
        <path d="M2227 2623C 2216 2604 2210 2540 2219 2540C 2224 2540 2231 2552 2233 2568L2233 2568L2237 2595L2239 2568C 2239 2552 2244 2540 2250 2540C 2255 2540 2266 2552 2275 2568L2275 2568L2291 2595L2285 2568C 2282 2552 2284 2540 2289 2540C 2299 2540 2313 2620 2304 2629C 2301 2632 2293 2627 2286 2617C 2255 2566 2251 2563 2250 2598C 2250 2627 2237 2641 2227 2623z" stroke="none" fill="#000000" fill-rule="nonzero" />
        <path d="M2337 2623C 2334 2618 2328 2598 2322 2578L2322 2578L2312 2540L2351 2540C 2372 2540 2390 2543 2391 2548C 2391 2552 2393 2568 2395 2585C 2397 2601 2394 2618 2387 2622C 2372 2632 2342 2632 2337 2623zM2380 2600C 2380 2595 2371 2590 2359 2590C 2348 2590 2342 2595 2345 2600C 2348 2606 2358 2610 2366 2610C 2374 2610 2380 2606 2380 2600zM2375 2560C 2372 2555 2362 2550 2354 2550C 2346 2550 2340 2555 2340 2560C 2340 2566 2349 2570 2361 2570C 2372 2570 2378 2566 2375 2560z" stroke="none" fill="#000000" fill-rule="nonzero" />
        <path d="M2426 2622C 2415 2604 2407 2525 2418 2535C 2423 2541 2431 2564 2435 2588C 2441 2627 2438 2641 2426 2622z" stroke="none" fill="#000000" fill-rule="nonzero" />
        <path d="M2460 2623C 2460 2618 2456 2598 2451 2578C 2441 2535 2456 2525 2467 2568L2467 2568L2473 2595L2487 2561C 2504 2521 2515 2529 2525 2589C 2530 2620 2529 2631 2521 2626C 2515 2622 2510 2610 2510 2599C 2510 2572 2493 2575 2486 2605C 2480 2628 2460 2641 2460 2623z" stroke="none" fill="#000000" fill-rule="nonzero" />
        <path d="M2556 2586C 2525 2532 2523 2521 2551 2546C 2568 2561 2574 2562 2591 2552C 2606 2542 2610 2542 2610 2554C 2610 2582 2597 2630 2590 2630C 2585 2630 2570 2610 2556 2586zM2586 2573C 2576 2563 2567 2578 2576 2591C 2582 2602 2584 2602 2588 2591C 2590 2584 2589 2576 2586 2573z" stroke="none" fill="#000000" fill-rule="nonzero" />
        <path d="M2630 2620C 2630 2615 2635 2610 2641 2610C 2648 2610 2649 2596 2645 2569C 2636 2518 2655 2524 2664 2575C 2668 2596 2677 2610 2685 2610C 2693 2610 2700 2615 2700 2620C 2700 2626 2684 2630 2665 2630C 2646 2630 2630 2626 2630 2620z" stroke="none" fill="#000000" fill-rule="nonzero" />
        <path d="M2710 2604C 2697 2572 2697 2533 2709 2546C 2719 2557 2733 2630 2725 2630C 2722 2630 2715 2618 2710 2604z" stroke="none" fill="#000000" fill-rule="nonzero" />
        <path d="M2756 2614C 2736 2594 2735 2556 2755 2540C 2778 2521 2820 2552 2820 2589C 2820 2629 2785 2643 2756 2614zM2805 2600C 2813 2586 2792 2550 2775 2550C 2754 2550 2748 2567 2760 2590C 2771 2611 2795 2617 2805 2600z" stroke="none" fill="#000000" fill-rule="nonzero" />
        <path d="M2847 2613C 2833 2562 2831 2540 2839 2540C 2844 2540 2851 2552 2855 2568L2855 2568L2862 2595L2872 2568C 2888 2521 2903 2531 2914 2593C 2919 2620 2918 2630 2911 2625C 2905 2622 2900 2610 2900 2599C 2900 2572 2883 2575 2876 2605C 2869 2634 2853 2638 2847 2613z" stroke="none" fill="#000000" fill-rule="nonzero" />
        <path d="M2963 2618C 2946 2597 2918 2538 2923 2534C 2925 2531 2933 2536 2940 2545C 2954 2562 2980 2565 2980 2550C 2980 2545 2985 2540 2991 2540C 2999 2540 3000 2553 2995 2578C 2987 2623 2977 2635 2963 2618zM2976 2573C 2966 2563 2957 2578 2966 2591C 2972 2602 2974 2602 2978 2591C 2980 2584 2979 2576 2976 2573z" stroke="none" fill="#000000" fill-rule="nonzero" />
        <path d="M3036 2622C 3034 2618 3029 2598 3025 2577C 3018 2540 3018 2540 3051 2541C 3076 2542 3079 2544 3062 2547C 3041 2551 3039 2555 3045 2591C 3051 2627 3048 2640 3036 2622z" stroke="none" fill="#000000" fill-rule="nonzero" />
        <path d="M3147 2623C 3145 2618 3140 2598 3136 2578C 3129 2540 3129 2540 3162 2541C 3187 2542 3189 2544 3172 2547C 3151 2551 3149 2555 3155 2591C 3161 2627 3157 2641 3147 2623z" stroke="none" fill="#000000" fill-rule="nonzero" />
        <path d="M3227 2612C 3204 2587 3206 2553 3230 2540C 3257 2526 3288 2543 3296 2575C 3308 2623 3260 2648 3227 2612zM3280 2592C 3280 2571 3262 2550 3243 2550C 3230 2550 3225 2591 3237 2603C 3251 2617 3280 2610 3280 2592z" stroke="none" fill="#000000" fill-rule="nonzero" />
        <path d="M3327 2612C 3290 2572 3324 2515 3370 2540C 3397 2555 3396 2580 3368 2579C 3355 2579 3351 2576 3358 2573C 3377 2565 3372 2550 3349 2550C 3333 2550 3329 2555 3332 2578C 3335 2602 3339 2605 3368 2603C 3395 2602 3399 2604 3389 2616C 3373 2635 3346 2634 3327 2612z" stroke="none" fill="#000000" fill-rule="nonzero" />
        <path d="M3413 2585C 3407 2560 3407 2540 3411 2540C 3416 2540 3422 2552 3426 2568C 3429 2583 3434 2603 3437 2613C 3439 2622 3437 2630 3432 2630C 3427 2630 3419 2610 3413 2585z" stroke="none" fill="#000000" fill-rule="nonzero" />
        <path d="M3468 2619C 3445 2606 3443 2545 3466 2536C 3484 2529 3520 2546 3520 2560C 3520 2566 3511 2565 3500 2558C 3485 2548 3478 2548 3468 2558C 3449 2577 3472 2605 3505 2603C 3527 2601 3530 2603 3520 2616C 3506 2632 3492 2633 3468 2619z" stroke="none" fill="#000000" fill-rule="nonzero" />
        <path d="M3585 2606C 3567 2578 3572 2545 3596 2536C 3614 2529 3650 2546 3650 2560C 3650 2574 3636 2572 3622 2558C 3605 2541 3586 2562 3595 2590C 3600 2607 3608 2611 3626 2607C 3642 2604 3649 2607 3647 2614C 3640 2636 3602 2632 3585 2606z" stroke="none" fill="#000000" fill-rule="nonzero" />
        <path d="M3671 2593C 3658 2546 3658 2540 3669 2540C 3679 2540 3695 2618 3687 2627C 3684 2630 3677 2615 3671 2593z" stroke="none" fill="#000000" fill-rule="nonzero" />
        <path d="M3716 2622C 3713 2617 3708 2594 3704 2570C 3699 2539 3700 2529 3708 2534C 3715 2538 3720 2548 3720 2556C 3720 2575 3739 2574 3746 2555C 3755 2532 3772 2537 3765 2560C 3761 2572 3763 2580 3770 2580C 3776 2580 3780 2590 3778 2603C 3776 2618 3767 2626 3748 2628C 3734 2630 3719 2627 3716 2622zM3760 2600C 3760 2595 3751 2590 3739 2590C 3728 2590 3722 2595 3725 2600C 3728 2606 3738 2610 3746 2610C 3754 2610 3760 2606 3760 2600z" stroke="none" fill="#000000" fill-rule="nonzero" />
        <path d="M3818 2618C 3793 2598 3787 2564 3805 2546C 3814 2537 3825 2530 3829 2530C 3844 2530 3875 2559 3868 2566C 3864 2570 3853 2567 3845 2560C 3824 2542 3806 2561 3815 2590C 3820 2607 3828 2611 3846 2607C 3862 2604 3869 2607 3867 2614C 3862 2630 3837 2632 3818 2618z" stroke="none" fill="#000000" fill-rule="nonzero" />
        <path d="M3896 2614C 3877 2564 3898 2522 3935 2536C 3950 2542 3976 2618 3966 2627C 3961 2632 3955 2618 3935 2562C 3925 2534 3905 2557 3908 2593C 3912 2632 3906 2641 3896 2614z" stroke="none" fill="#000000" fill-rule="nonzero" />
        <path d="M3986 2605C 3973 2550 3972 2540 3981 2540C 3993 2540 4003 2582 3998 2611C 3994 2633 3993 2633 3986 2605z" stroke="none" fill="#000000" fill-rule="nonzero" />
        <path d="M4020 2620C 4020 2615 4025 2610 4031 2610C 4038 2610 4040 2598 4036 2575C 4032 2555 4033 2540 4038 2540C 4044 2540 4051 2556 4054 2575C 4058 2596 4067 2610 4075 2610C 4083 2610 4090 2615 4090 2620C 4090 2626 4074 2630 4055 2630C 4036 2630 4020 2626 4020 2620z" stroke="none" fill="#000000" fill-rule="nonzero" />
        <path d="M4103 2614C 4099 2603 4104 2591 4118 2579C 4147 2556 4146 2546 4115 2554C 4088 2561 4080 2546 4106 2536C 4126 2528 4160 2546 4160 2565C 4160 2572 4151 2582 4140 2585C 4114 2593 4114 2614 4141 2607C 4154 2604 4160 2606 4157 2613C 4151 2633 4111 2633 4103 2614z" stroke="none" fill="#000000" fill-rule="nonzero" />
        <path d="M4300 2604C 4294 2590 4290 2570 4290 2559C 4290 2532 4310 2546 4310 2573C 4311 2593 4312 2593 4326 2568C 4346 2531 4358 2533 4366 2574C 4375 2622 4365 2643 4353 2600L4353 2600L4344 2565L4332 2598C 4319 2637 4313 2638 4300 2604z" stroke="none" fill="#000000" fill-rule="nonzero" />
        <path d="M4402 2591C 4376 2545 4374 2533 4396 2551C 4408 2561 4416 2561 4431 2552C 4448 2541 4450 2543 4450 2569C 4450 2602 4441 2630 4431 2630C 4427 2630 4414 2613 4402 2591zM4426 2573C 4416 2563 4407 2578 4416 2591C 4422 2602 4424 2602 4428 2591C 4430 2584 4429 2576 4426 2573z" stroke="none" fill="#000000" fill-rule="nonzero" />
        <path d="M4487 2614C 4472 2561 4470 2540 4480 2540C 4485 2540 4490 2549 4490 2560C 4490 2571 4494 2580 4499 2580C 4504 2580 4512 2571 4515 2560C 4521 2540 4535 2534 4543 2548C 4554 2567 4561 2632 4551 2625C 4545 2622 4540 2610 4540 2599C 4540 2589 4536 2580 4530 2580C 4525 2580 4520 2584 4520 2588C 4520 2593 4514 2605 4506 2615C 4493 2633 4492 2633 4487 2614z" stroke="none" fill="#000000" fill-rule="nonzero" />
        <path d="M4580 2623C 4580 2619 4576 2598 4571 2578L4571 2578L4562 2540L4596 2540C 4660 2540 4669 2621 4606 2628C 4592 2630 4580 2628 4580 2623zM4630 2596C 4630 2569 4618 2550 4601 2550C 4587 2550 4584 2557 4588 2580C 4591 2601 4598 2610 4611 2610C 4622 2610 4630 2604 4630 2596z" stroke="none" fill="#000000" fill-rule="nonzero" />
        <path d="M4718 2619C 4695 2606 4693 2545 4716 2536C 4740 2527 4747 2528 4764 2546C 4786 2568 4784 2580 4758 2579C 4745 2579 4741 2576 4748 2573C 4767 2566 4762 2550 4741 2550C 4716 2550 4707 2565 4715 2591C 4721 2608 4728 2611 4751 2606C 4781 2600 4791 2613 4764 2624C 4743 2632 4738 2631 4718 2619z" stroke="none" fill="#000000" fill-rule="nonzero" />
        <path d="M4814 2591C 4799 2568 4790 2546 4794 2543C 4798 2539 4805 2542 4810 2550C 4818 2562 4823 2563 4840 2553C 4868 2535 4869 2536 4863 2578C 4855 2634 4845 2636 4814 2591zM4840 2585C 4840 2577 4836 2570 4830 2570C 4825 2570 4823 2577 4826 2585C 4830 2593 4834 2600 4836 2600C 4838 2600 4840 2593 4840 2585z" stroke="none" fill="#000000" fill-rule="nonzero" />
        <path d="M4885 2620C 4882 2615 4886 2610 4894 2610C 4913 2610 4912 2613 4901 2572C 4896 2555 4895 2540 4900 2540C 4910 2540 4920 2565 4920 2591C 4920 2601 4927 2610 4935 2610C 4943 2610 4950 2615 4950 2620C 4950 2626 4937 2630 4921 2630C 4904 2630 4888 2626 4885 2620z" stroke="none" fill="#000000" fill-rule="nonzero" />
        <path d="M4967 2613C 4947 2540 4947 2540 4987 2541C 5018 2543 5020 2544 4997 2547C 4965 2552 4966 2575 4998 2575C 5009 2575 5022 2579 5026 2583C 5030 2587 5021 2590 5007 2590C 4992 2590 4980 2595 4980 2600C 4980 2606 4991 2610 5005 2610C 5019 2610 5030 2615 5030 2620C 5030 2638 4972 2631 4967 2613z" stroke="none" fill="#000000" fill-rule="nonzero" />
        <path d="M4210 2570C 4210 2565 4217 2560 4225 2560C 4233 2560 4240 2565 4240 2570C 4240 2576 4233 2580 4225 2580C 4217 2580 4210 2576 4210 2570z" stroke="none" fill="#000000" fill-rule="nonzero" />
        <path d="M802 2450C 801 2424 805 2399 812 2392C 830 2374 868 2378 880 2399C 893 2424 893 2490 880 2490C 875 2490 870 2470 870 2445C 870 2366 815 2374 807 2453L807 2453L803 2495L802 2450z" stroke="none" fill="#000000" fill-rule="nonzero" />
        <path d="M932 2478C 917 2463 916 2446 930 2455C 936 2459 940 2445 940 2421C 940 2398 945 2380 950 2380C 956 2380 960 2405 960 2435C 960 2491 954 2500 932 2478z" stroke="none" fill="#000000" fill-rule="nonzero" />
        <path d="M1055 2448C 1046 2424 1036 2399 1033 2393C 1030 2386 1033 2380 1039 2380C 1045 2380 1050 2387 1050 2395C 1050 2416 1106 2415 1114 2394C 1118 2385 1123 2379 1125 2382C 1132 2389 1089 2490 1080 2490C 1076 2490 1064 2471 1055 2448zM1093 2450C 1097 2435 1093 2430 1080 2430C 1067 2430 1063 2435 1067 2450C 1070 2461 1076 2470 1080 2470C 1084 2470 1090 2461 1093 2450z" stroke="none" fill="#000000" fill-rule="nonzero" />
        <path d="M6607 2443L5980 2440L5982 1757L5985 1075L6638 1072C 7156 1070 7290 1072 7290 1082C 7290 1089 7291 1395 7292 1761C 7292 2127 7290 2432 7286 2438C 7282 2445 7269 2449 7257 2448C 7245 2446 6953 2444 6607 2443zM6260 2350C 6260 2345 6254 2340 6246 2340C 6232 2340 6228 2332 6216 2278C 6205 2230 6187 2245 6194 2295C 6199 2324 6198 2340 6191 2340C 6185 2340 6180 2345 6180 2350C 6180 2356 6198 2360 6220 2360C 6242 2360 6260 2356 6260 2350zM6347 2344C 6350 2335 6348 2319 6342 2310C 6336 2300 6334 2283 6337 2271C 6344 2244 6324 2243 6315 2270C 6308 2293 6280 2297 6280 2276C 6280 2261 6262 2245 6254 2253C 6252 2255 6255 2280 6262 2309C 6273 2358 6275 2360 6307 2360C 6329 2360 6343 2354 6347 2344zM6393 2314C 6388 2277 6390 2268 6401 2272C 6409 2275 6420 2294 6426 2315C 6441 2369 6464 2375 6454 2324C 6443 2260 6400 2229 6371 2264C 6356 2282 6368 2360 6386 2360C 6396 2360 6398 2349 6393 2314zM6550 2350C 6550 2345 6544 2340 6536 2340C 6527 2340 6519 2325 6515 2300C 6509 2263 6495 2242 6484 2253C 6481 2255 6483 2276 6489 2299C 6496 2332 6495 2340 6484 2340C 6476 2340 6470 2345 6470 2350C 6470 2356 6488 2360 6510 2360C 6532 2360 6550 2356 6550 2350zM6587 2340C 6583 2325 6587 2320 6601 2320C 6611 2320 6620 2326 6620 2334C 6620 2349 6638 2365 6646 2357C 6648 2355 6645 2330 6639 2301C 6628 2248 6610 2232 6610 2275C 6610 2290 6604 2300 6595 2300C 6587 2300 6578 2289 6574 2275C 6568 2251 6559 2244 6548 2256C 6543 2261 6551 2306 6565 2348C 6572 2369 6593 2362 6587 2340zM6780 2350C 6780 2345 6774 2340 6766 2340C 6759 2340 6749 2322 6744 2298C 6731 2238 6708 2235 6716 2294C 6721 2325 6719 2340 6711 2340C 6705 2340 6700 2345 6700 2350C 6700 2356 6718 2360 6740 2360C 6762 2360 6780 2356 6780 2350zM6844 2343C 6849 2325 6853 2273 6851 2257C 6850 2252 6840 2256 6828 2264C 6808 2278 6804 2278 6788 2263C 6758 2236 6757 2256 6786 2309C 6814 2361 6835 2373 6844 2343zM6958 2347C 6964 2340 6965 2329 6960 2321C 6956 2313 6954 2301 6957 2293C 6966 2271 6940 2250 6903 2250L6903 2250L6868 2250L6875 2298C 6879 2324 6884 2348 6887 2353C 6894 2365 6947 2361 6958 2347zM7007 2315C 7001 2272 7002 2270 7025 2270C 7039 2270 7050 2266 7050 2260C 7050 2255 7032 2250 7010 2250C 6988 2250 6970 2252 6970 2255C 6970 2257 6975 2282 6981 2310C 6995 2373 7015 2378 7007 2315zM7160 2350C 7160 2345 7147 2340 7130 2340C 7114 2340 7100 2336 7100 2330C 7100 2325 7111 2320 7125 2320C 7139 2320 7150 2316 7150 2310C 7150 2305 7137 2300 7120 2300C 7100 2300 7090 2295 7090 2285C 7090 2276 7099 2270 7115 2270C 7129 2270 7140 2266 7140 2260C 7140 2255 7121 2250 7099 2250L7099 2250L7058 2250L7065 2298C 7069 2324 7074 2348 7077 2353C 7084 2364 7160 2362 7160 2350zM6240 2064C 6264 2009 6264 2010 6245 2010C 6237 2010 6230 2015 6230 2020C 6230 2026 6221 2030 6210 2030C 6199 2030 6190 2026 6190 2020C 6190 2015 6183 2010 6175 2010C 6164 2010 6163 2015 6170 2035C 6176 2049 6184 2071 6190 2085C 6204 2122 6218 2116 6240 2064zM6668 2098C 6673 2091 6677 2069 6676 2050C 6675 2017 6673 2015 6638 2012L6638 2012L6600 2009L6600 2059C 6600 2108 6601 2110 6629 2110C 6645 2110 6662 2104 6668 2098zM7099 2096C 7105 2089 7112 2065 7114 2042L7114 2042L7118 2002L7081 2007C 7061 2010 7039 2017 7033 2023C 7017 2035 7016 2082 7032 2098C 7048 2114 7085 2113 7099 2096zM6238 1849C 6241 1810 6223 1786 6196 1796C 6185 1800 6180 1814 6180 1839C 6180 1883 6187 1892 6215 1888C 6230 1886 6236 1876 6238 1849zM6668 1849C 6673 1790 6620 1770 6606 1826C 6597 1860 6616 1892 6643 1888C 6660 1886 6666 1877 6668 1849zM7078 1843C 7077 1806 7076 1803 7073 1828C 7070 1849 7063 1860 7052 1860C 7039 1860 7039 1862 7056 1875C 7066 1883 7076 1890 7078 1890C 7079 1890 7079 1869 7078 1843zM6230 1630C 6230 1592 6226 1580 6215 1580C 6205 1580 6200 1590 6200 1609C 6200 1625 6194 1640 6188 1643C 6179 1646 6181 1653 6195 1664C 6226 1688 6230 1684 6230 1630zM6659 1666C 6666 1658 6670 1636 6668 1618C 6664 1574 6626 1565 6608 1604C 6587 1652 6629 1703 6659 1666zM7080 1629C 7080 1602 7076 1581 7072 1584C 7067 1587 7065 1604 7068 1621C 7072 1649 7070 1652 7054 1646C 7037 1639 7037 1640 7055 1660C 7065 1671 7075 1680 7077 1680C 7078 1680 7080 1657 7080 1629zM6228 1458C 6260 1426 6229 1342 6195 1370C 6169 1392 6181 1470 6210 1470C 6213 1470 6221 1465 6228 1458zM6658 1409C 6655 1362 6637 1349 6631 1390C 6630 1404 6623 1418 6617 1422C 6609 1427 6612 1435 6625 1450C 6650 1478 6662 1463 6658 1409zM7078 1413C 7077 1376 7076 1373 7073 1398C 7070 1419 7063 1430 7053 1430C 7040 1430 7040 1433 7050 1445C 7072 1471 7080 1461 7078 1413zM6230 1199C 6230 1163 6226 1150 6218 1152C 6211 1155 6203 1167 6201 1181C 6200 1194 6193 1208 6187 1212C 6179 1217 6181 1224 6195 1234C 6226 1258 6230 1254 6230 1199zM6660 1200C 6660 1162 6656 1150 6645 1150C 6635 1150 6630 1160 6630 1179C 6630 1195 6625 1210 6618 1212C 6609 1215 6610 1221 6620 1233C 6648 1263 6660 1253 6660 1200zM7088 1205C 7092 1163 7081 1146 7057 1156C 7037 1163 7033 1236 7053 1243C 7076 1253 7085 1243 7088 1205z" stroke="none" fill="#000000" fill-rule="nonzero" />
        <path d="M6290 2330C 6290 2325 6299 2320 6310 2320C 6321 2320 6330 2325 6330 2330C 6330 2336 6321 2340 6310 2340C 6299 2340 6290 2336 6290 2330z" stroke="none" fill="#000000" fill-rule="nonzero" />
        <path d="M6810 2310C 6810 2305 6815 2300 6821 2300C 6826 2300 6828 2305 6825 2310C 6822 2316 6817 2320 6814 2320C 6812 2320 6810 2316 6810 2310z" stroke="none" fill="#000000" fill-rule="nonzero" />
        <path d="M6910 2330C 6910 2325 6917 2320 6925 2320C 6933 2320 6940 2325 6940 2330C 6940 2336 6933 2340 6925 2340C 6917 2340 6910 2336 6910 2330z" stroke="none" fill="#000000" fill-rule="nonzero" />
        <path d="M6900 2285C 6900 2277 6906 2270 6914 2270C 6936 2270 6942 2287 6924 2294C 6902 2303 6900 2302 6900 2285z" stroke="none" fill="#000000" fill-rule="nonzero" />
        <path d="M6200 2060C 6200 2055 6205 2050 6210 2050C 6216 2050 6220 2055 6220 2060C 6220 2066 6216 2070 6210 2070C 6205 2070 6200 2066 6200 2060z" stroke="none" fill="#000000" fill-rule="nonzero" />
        <path d="M6620 2080C 6620 2075 6627 2070 6635 2070C 6643 2070 6650 2075 6650 2080C 6650 2086 6643 2090 6635 2090C 6627 2090 6620 2086 6620 2080z" stroke="none" fill="#000000" fill-rule="nonzero" />
        <path d="M6620 2040C 6620 2035 6629 2030 6640 2030C 6651 2030 6660 2035 6660 2040C 6660 2046 6651 2050 6640 2050C 6629 2050 6620 2046 6620 2040z" stroke="none" fill="#000000" fill-rule="nonzero" />
        <path d="M7047 2075C 7037 2051 7049 2032 7071 2037C 7085 2041 7090 2050 7088 2064C 7084 2089 7055 2097 7047 2075z" stroke="none" fill="#000000" fill-rule="nonzero" />
        <path d="M6200 1845C 6200 1831 6205 1820 6210 1820C 6216 1820 6220 1831 6220 1845C 6220 1859 6216 1870 6210 1870C 6205 1870 6200 1859 6200 1845z" stroke="none" fill="#000000" fill-rule="nonzero" />
        <path d="M6630 1839C 6630 1822 6634 1811 6640 1815C 6646 1818 6650 1832 6650 1846C 6650 1859 6646 1870 6640 1870C 6635 1870 6630 1856 6630 1839z" stroke="none" fill="#000000" fill-rule="nonzero" />
        <path d="M6630 1630C 6630 1612 6634 1601 6640 1605C 6646 1608 6650 1620 6650 1630C 6650 1640 6646 1652 6640 1655C 6634 1659 6630 1648 6630 1630z" stroke="none" fill="#000000" fill-rule="nonzero" />
        <path d="M6200 1415C 6200 1401 6205 1390 6210 1390C 6216 1390 6220 1401 6220 1415C 6220 1429 6216 1440 6210 1440C 6205 1440 6200 1429 6200 1415z" stroke="none" fill="#000000" fill-rule="nonzero" />
        <path d="M7052 1198C 7054 1180 7060 1165 7065 1165C 7071 1165 7076 1180 7078 1198C 7081 1222 7077 1230 7065 1230C 7053 1230 7049 1222 7052 1198z" stroke="none" fill="#000000" fill-rule="nonzero" />
        <path d="M1000 2390C 1000 2385 1005 2380 1011 2380C 1016 2380 1018 2385 1015 2390C 1012 2396 1007 2400 1004 2400C 1002 2400 1000 2396 1000 2390z" stroke="none" fill="#000000" fill-rule="nonzero" />
        <path d="M790 2280L790 2220L718 2219C 678 2219 562 2219 460 2219C 292 2220 274 2222 260 2239C 234 2272 203 2274 175 2246C 146 2217 144 2203 166 2172C 176 2158 192 2150 210 2150C 238 2150 270 2172 270 2191C 270 2197 371 2199 528 2198L528 2198L785 2195L785 2080L785 1965L528 1962C 371 1961 270 1963 270 1969C 270 1988 238 2010 210 2010C 150 2010 132 1920 187 1899C 222 1886 228 1887 257 1916C 285 1944 243 1941 670 1940L670 1940L790 1940L790 1880L790 1820L1073 1820C 1347 1820 1356 1821 1405 1844C 1466 1872 1521 1931 1545 1994C 1560 2032 1566 2039 1582 2034C 1595 2030 1610 2036 1624 2049C 1645 2069 1656 2070 1786 2068L1786 2068L1925 2065L1927 1880L1929 1695L2117 1690L2305 1685L2305 1570L2305 1455L2118 1452L1930 1450L1928 1262L1925 1075L1786 1072C 1655 1070 1646 1071 1627 1091C 1615 1104 1599 1110 1585 1108C 1566 1104 1560 1110 1549 1143C 1528 1208 1476 1265 1413 1297L1413 1297L1355 1325L1073 1328L791 1331L788 1268L785 1205L598 1202L410 1200L410 1151C 410 1088 391 1070 322 1070C 293 1070 270 1074 270 1079C 270 1098 238 1120 210 1120C 151 1120 134 1048 184 1014C 212 997 253 1008 269 1038C 276 1051 292 1057 325 1059C 389 1062 410 1042 410 979L410 979L410 930L598 928L785 925L788 863L791 800L1064 800C 1373 800 1398 804 1473 871C 1502 896 1526 930 1541 965C 1561 1013 1567 1020 1591 1020C 1607 1020 1623 1027 1629 1038C 1638 1053 1655 1055 1789 1053L1789 1053L1940 1051L1942 1243L1945 1435L2125 1435C 2262 1435 2305 1432 2306 1423C 2307 1416 2308 1388 2309 1360L2309 1360L2310 1310L2590 1310C 2861 1310 2871 1311 2922 1333C 2985 1361 3041 1420 3065 1483C 3080 1524 3086 1530 3112 1530C 3128 1530 3143 1536 3146 1545C 3151 1557 3176 1560 3284 1560C 3373 1560 3420 1556 3428 1548C 3435 1541 3440 1514 3440 1488L3440 1488L3440 1440L3630 1440L3819 1440L3822 1378L3825 1315L4106 1312C 4372 1310 4390 1311 4436 1330C 4502 1358 4554 1412 4581 1476C 4600 1524 4606 1530 4631 1530C 4648 1530 4663 1536 4666 1545C 4671 1558 4706 1560 4891 1560C 5099 1560 5110 1559 5120 1540C 5146 1491 5230 1513 5230 1569C 5230 1627 5155 1653 5124 1605L5124 1605L5108 1580L4895 1580C 4693 1580 4682 1581 4664 1601C 4653 1614 4637 1620 4624 1617C 4605 1614 4599 1621 4584 1658C 4562 1717 4508 1776 4448 1806C 4401 1830 4398 1830 4110 1830L4110 1830L3820 1830L3820 1770L3820 1710L3633 1708L3445 1705L3442 1655C 3440 1628 3434 1600 3428 1593C 3421 1584 3381 1580 3290 1580C 3174 1580 3161 1582 3144 1601C 3133 1614 3117 1620 3104 1617C 3085 1614 3079 1621 3064 1658C 3042 1718 2976 1788 2922 1811C 2883 1828 2849 1830 2594 1830L2594 1830L2310 1830L2310 1770L2310 1710L2125 1710L1940 1710L1940 1900L1940 2090L1794 2090C 1663 2090 1646 2092 1623 2110C 1608 2121 1589 2128 1580 2125C 1567 2121 1559 2131 1545 2166C 1521 2229 1466 2288 1405 2316C 1356 2339 1347 2340 1073 2340L1073 2340L790 2340L790 2280zM1405 2296C 1486 2259 1540 2173 1540 2080C 1540 1987 1490 1906 1407 1863C 1356 1837 1352 1837 1130 1835C 1006 1834 881 1836 853 1838L853 1838L800 1843L800 2081L800 2320L1078 2320C 1347 2320 1356 2319 1405 2296zM238 2238C 255 2221 253 2183 234 2172C 209 2158 181 2169 174 2196C 163 2238 208 2268 238 2238zM1618 2082C 1622 2054 1594 2042 1573 2063C 1559 2076 1559 2082 1570 2095C 1588 2117 1614 2110 1618 2082zM245 1956C 245 1920 218 1900 193 1916C 153 1941 173 1993 219 1988C 240 1986 245 1980 245 1956zM2925 1788C 2986 1756 3013 1729 3039 1670C 3093 1551 3037 1404 2916 1349C 2879 1332 2846 1330 2598 1330L2598 1330L2320 1330L2320 1568C 2320 1699 2323 1810 2327 1814C 2332 1818 2456 1820 2605 1818C 2875 1815 2875 1815 2925 1788zM4446 1788C 4530 1744 4580 1661 4580 1568C 4580 1502 4555 1447 4504 1398C 4435 1332 4423 1330 4115 1330L4115 1330L3840 1330L3840 1568C 3840 1699 3843 1810 3847 1814C 3852 1818 3976 1820 4125 1818L4125 1818L4395 1815L4446 1788zM3820 1570L3820 1450L3643 1452L3465 1455L3462 1493C 3460 1519 3464 1538 3476 1551C 3491 1568 3491 1571 3476 1594C 3467 1608 3460 1635 3460 1655L3460 1655L3460 1690L3640 1690L3820 1690L3820 1570zM5205 1576C 5205 1540 5178 1520 5153 1536C 5113 1561 5133 1613 5179 1608C 5200 1606 5205 1600 5205 1576zM3138 1574C 3142 1548 3112 1534 3093 1553C 3085 1560 3082 1574 3086 1584C 3095 1608 3134 1601 3138 1574zM4657 1584C 4660 1576 4655 1561 4646 1552C 4631 1537 4629 1537 4614 1552C 4593 1573 4603 1600 4630 1600C 4641 1600 4653 1593 4657 1584zM1383 1290C 1443 1267 1502 1213 1525 1158C 1546 1107 1544 1015 1521 965C 1511 943 1485 908 1464 888C 1397 824 1372 820 1069 820L1069 820L800 820L800 1058C 800 1189 803 1300 807 1303C 810 1307 929 1310 1071 1310C 1304 1310 1334 1308 1383 1290zM788 1063L785 945L605 946L425 948L422 987C 420 1014 424 1031 435 1040C 454 1056 454 1074 435 1090C 426 1097 420 1119 420 1141L420 1141L420 1180L605 1180L791 1180L788 1063zM231 1100C 254 1087 256 1048 235 1030C 223 1020 214 1020 195 1028C 166 1041 162 1071 186 1094C 204 1113 206 1113 231 1100zM1617 1074C 1620 1066 1616 1052 1608 1044C 1589 1025 1556 1047 1566 1073C 1574 1094 1609 1095 1617 1074z" stroke="none" fill="#000000" fill-rule="nonzero" />
        <path d="M3659 1538C 3648 1530 3648 1529 3662 1534C 3690 1543 3694 1520 3669 1494L3669 1494L3647 1470L3676 1471C 3699 1471 3701 1473 3687 1479C 3670 1485 3670 1487 3684 1499C 3715 1525 3691 1561 3659 1538z" stroke="none" fill="#000000" fill-rule="nonzero" />
        <path d="M3605 1530C 3602 1525 3603 1520 3609 1520C 3614 1520 3621 1508 3623 1493C 3626 1470 3627 1472 3629 1503C 3630 1538 3618 1552 3605 1530z" stroke="none" fill="#000000" fill-rule="nonzero" />
        <path d="M627 1033C 614 1021 620 1000 635 1000C 643 1000 650 993 650 984C 650 973 644 970 628 975C 610 981 608 980 617 970C 623 963 636 960 644 963C 664 971 665 1010 645 1010C 624 1010 626 1028 648 1033C 662 1037 662 1038 649 1039C 640 1039 630 1037 627 1033z" stroke="none" fill="#000000" fill-rule="nonzero" />
        <path d="M629 2293C 621 2283 620 2279 627 2283C 635 2288 640 2280 643 2258C 646 2229 647 2230 648 2268C 650 2315 648 2317 629 2293z" stroke="none" fill="#000000" fill-rule="nonzero" />
        <path d="M1690 2171C 1690 2165 1696 2163 1703 2166C 1713 2169 1717 2162 1718 2140C 1719 2114 1716 2110 1702 2115C 1689 2120 1688 2119 1697 2109C 1717 2089 1740 2115 1731 2148C 1724 2174 1690 2193 1690 2171z" stroke="none" fill="#000000" fill-rule="nonzero" />
        <path d="M645 2039C 649 2033 642 2018 629 2004L629 2004L607 1980L636 1981C 659 1981 661 1983 647 1989C 630 1995 630 1997 644 2009C 662 2024 665 2050 649 2050C 644 2050 642 2045 645 2039z" stroke="none" fill="#000000" fill-rule="nonzero" />
        <path d="M2582 1974C 2549 1951 2551 1894 2586 1878C 2614 1865 2640 1875 2648 1901C 2652 1911 2647 1910 2632 1897C 2595 1863 2556 1903 2576 1954C 2583 1973 2621 1975 2638 1958C 2647 1949 2650 1949 2650 1958C 2650 1967 2620 1990 2608 1990C 2606 1990 2594 1983 2582 1974z" stroke="none" fill="#000000" fill-rule="nonzero" />
        <path d="M2322 1939C 2321 1908 2325 1888 2335 1880C 2356 1863 2396 1876 2404 1902C 2413 1938 2411 1980 2400 1980C 2395 1980 2390 1960 2390 1936C 2390 1858 2334 1865 2327 1943L2327 1943L2323 1985L2322 1939z" stroke="none" fill="#000000" fill-rule="nonzero" />
        <path d="M2450 1965C 2441 1955 2441 1950 2449 1950C 2455 1950 2460 1933 2460 1909C 2460 1885 2464 1871 2470 1875C 2482 1883 2483 1980 2471 1980C 2466 1980 2457 1973 2450 1965z" stroke="none" fill="#000000" fill-rule="nonzero" />
        <path d="M3842 1939C 3840 1885 3857 1864 3895 1874C 3918 1880 3920 1884 3918 1933L3918 1933L3916 1985L3913 1938C 3906 1860 3855 1864 3847 1943L3847 1943L3843 1985L3842 1939z" stroke="none" fill="#000000" fill-rule="nonzero" />
        <path d="M3969 1963C 3959 1952 3959 1949 3968 1954C 3977 1959 3980 1949 3980 1915C 3980 1885 3984 1871 3990 1875C 4002 1882 4001 1980 3989 1980C 3986 1980 3976 1972 3969 1963z" stroke="none" fill="#000000" fill-rule="nonzero" />
        <path d="M4080 1925C 4080 1871 4080 1870 4109 1870C 4146 1870 4170 1893 4170 1929C 4170 1965 4153 1980 4113 1980L4113 1980L4080 1980L4080 1925zM4150 1955C 4157 1947 4160 1930 4156 1915C 4151 1895 4143 1890 4120 1890C 4092 1890 4090 1892 4090 1930C 4090 1965 4093 1970 4114 1970C 4127 1970 4143 1963 4150 1955z" stroke="none" fill="#000000" fill-rule="nonzero" />
        <path d="M803 1793C 823 1788 824 1785 809 1758C 803 1747 801 1736 803 1734C 807 1730 840 1786 840 1797C 840 1798 828 1799 813 1799C 796 1798 792 1796 803 1793z" stroke="none" fill="#000000" fill-rule="nonzero" />
        <path d="M870 1785C 861 1775 861 1770 869 1770C 875 1770 880 1765 880 1759C 880 1753 873 1750 865 1754C 857 1757 850 1756 850 1751C 850 1746 859 1740 870 1737C 887 1733 890 1737 890 1766C 890 1804 888 1806 870 1785z" stroke="none" fill="#000000" fill-rule="nonzero" />
        <path d="M912 1765C 912 1743 914 1733 917 1743C 919 1752 930 1760 940 1760C 950 1760 961 1752 963 1743C 966 1733 968 1743 968 1765C 968 1787 966 1797 963 1788C 961 1778 950 1770 940 1770C 930 1770 919 1778 917 1788C 914 1797 912 1787 912 1765z" stroke="none" fill="#000000" fill-rule="nonzero" />
        <path d="M992 1783C 981 1763 993 1720 1009 1720C 1027 1720 1050 1732 1050 1742C 1050 1748 1044 1747 1035 1740C 1016 1724 1000 1736 1000 1767C 1000 1789 1003 1791 1026 1786C 1043 1781 1049 1783 1045 1790C 1035 1806 1002 1802 992 1783z" stroke="none" fill="#000000" fill-rule="nonzero" />
        <path d="M1067 1794C 1055 1782 1059 1743 1074 1731C 1092 1716 1113 1740 1108 1772C 1105 1794 1081 1807 1067 1794zM1095 1762C 1095 1731 1076 1734 1072 1766C 1069 1784 1072 1791 1082 1788C 1089 1785 1095 1774 1095 1762z" stroke="none" fill="#000000" fill-rule="nonzero" />
        <path d="M1127 1793C 1116 1783 1119 1732 1131 1724C 1150 1713 1173 1746 1166 1774C 1160 1799 1141 1808 1127 1793zM1155 1762C 1155 1731 1136 1734 1132 1766C 1129 1784 1132 1791 1142 1788C 1149 1785 1155 1774 1155 1762z" stroke="none" fill="#000000" fill-rule="nonzero" />
        <path d="M2097 1793C 2095 1788 2097 1772 2101 1755C 2108 1726 2108 1726 2109 1763C 2110 1798 2106 1809 2097 1793z" stroke="none" fill="#000000" fill-rule="nonzero" />
        <path d="M2134 1775C 2130 1757 2133 1743 2144 1732C 2165 1711 2183 1728 2178 1766C 2174 1805 2143 1811 2134 1775zM2170 1766C 2170 1752 2165 1738 2160 1735C 2147 1727 2136 1755 2144 1775C 2153 1799 2170 1792 2170 1766z" stroke="none" fill="#000000" fill-rule="nonzero" />
        <path d="M3617 1793C 3615 1788 3617 1772 3621 1755C 3628 1726 3628 1726 3629 1763C 3630 1798 3626 1809 3617 1793z" stroke="none" fill="#000000" fill-rule="nonzero" />
        <path d="M3656 1791C 3653 1786 3659 1784 3670 1787C 3681 1790 3690 1787 3690 1781C 3690 1775 3684 1770 3678 1770C 3668 1770 3669 1767 3679 1761C 3697 1749 3684 1729 3662 1736C 3647 1741 3647 1741 3663 1730C 3688 1714 3700 1726 3697 1763C 3695 1794 3669 1812 3656 1791z" stroke="none" fill="#000000" fill-rule="nonzero" />
        <path d="M3207 1643C 3204 1627 3206 1611 3211 1605C 3218 1598 3220 1600 3218 1609C 3216 1616 3221 1625 3229 1628C 3239 1631 3241 1628 3237 1616C 3233 1607 3235 1600 3240 1600C 3246 1600 3250 1616 3250 1635C 3250 1663 3246 1670 3231 1670C 3219 1670 3211 1661 3207 1643zM3240 1650C 3240 1645 3236 1640 3230 1640C 3225 1640 3220 1645 3220 1650C 3220 1656 3225 1660 3230 1660C 3236 1660 3240 1656 3240 1650z" stroke="none" fill="#000000" fill-rule="nonzero" />
        <path d="M4740 1660C 4731 1654 4730 1650 4737 1650C 4743 1650 4751 1638 4753 1623C 4756 1600 4757 1602 4759 1633C 4759 1653 4759 1670 4758 1670C 4756 1670 4748 1665 4740 1660z" stroke="none" fill="#000000" fill-rule="nonzero" />
        <path d="M4797 1663C 4795 1658 4797 1642 4801 1625C 4808 1596 4808 1596 4809 1633C 4810 1668 4806 1679 4797 1663z" stroke="none" fill="#000000" fill-rule="nonzero" />
        <path d="M2139 1534C 2130 1523 2130 1516 2137 1509C 2145 1501 2148 1502 2147 1511C 2146 1519 2149 1527 2155 1530C 2160 1533 2166 1523 2167 1508C 2168 1490 2163 1480 2152 1476C 2140 1473 2141 1472 2155 1473C 2170 1475 2176 1484 2178 1506C 2182 1542 2159 1558 2139 1534z" stroke="none" fill="#000000" fill-rule="nonzero" />
        <path d="M802 1434C 801 1399 805 1378 815 1370C 836 1353 876 1366 884 1392C 893 1427 891 1468 880 1475C 874 1479 870 1462 870 1430C 870 1380 869 1379 843 1382C 818 1385 814 1390 809 1435L809 1435L803 1485L802 1434z" stroke="none" fill="#000000" fill-rule="nonzero" />
        <path d="M1042 1423C 1045 1369 1047 1365 1071 1362C 1104 1358 1133 1385 1121 1408C 1117 1417 1115 1431 1117 1438C 1125 1459 1100 1480 1068 1480L1068 1480L1039 1480L1042 1423zM1103 1445C 1107 1428 1063 1428 1056 1445C 1051 1458 1056 1461 1075 1458C 1089 1456 1102 1451 1103 1445zM1108 1398C 1111 1385 1105 1380 1087 1380C 1063 1380 1045 1401 1058 1414C 1070 1427 1105 1415 1108 1398z" stroke="none" fill="#000000" fill-rule="nonzero" />
        <path d="M929 1453C 919 1442 919 1439 928 1444C 937 1449 940 1440 940 1411C 940 1388 945 1370 950 1370C 956 1370 960 1393 960 1420C 960 1472 952 1481 929 1453z" stroke="none" fill="#000000" fill-rule="nonzero" />
        <path d="M1000 1369C 1000 1364 1005 1362 1010 1365C 1016 1368 1020 1373 1020 1376C 1020 1378 1016 1380 1010 1380C 1005 1380 1000 1375 1000 1369z" stroke="none" fill="#000000" fill-rule="nonzero" />
        <path d="M637 1283C 633 1277 633 1264 636 1253C 640 1240 639 1238 632 1249C 626 1258 620 1259 616 1252C 612 1246 618 1236 629 1230C 654 1217 661 1229 651 1265C 647 1282 641 1290 637 1283z" stroke="none" fill="#000000" fill-rule="nonzero" />
        <path d="M2323 1283C 2334 1280 2339 1273 2336 1264C 2312 1207 2317 1203 2344 1258L2344 1258L2361 1290L2333 1289C 2314 1288 2311 1286 2323 1283z" stroke="none" fill="#000000" fill-rule="nonzero" />
        <path d="M2380 1265C 2373 1251 2370 1237 2373 1233C 2377 1230 2380 1234 2380 1243C 2380 1252 2385 1262 2392 1266C 2400 1271 2401 1266 2398 1252C 2394 1240 2396 1227 2401 1224C 2406 1221 2410 1235 2410 1254C 2410 1296 2399 1300 2380 1265z" stroke="none" fill="#000000" fill-rule="nonzero" />
        <path d="M2432 1255C 2432 1233 2434 1223 2437 1233C 2439 1242 2450 1250 2460 1250C 2470 1250 2481 1242 2483 1233C 2486 1223 2488 1233 2488 1255C 2488 1277 2486 1287 2483 1278C 2481 1268 2470 1260 2460 1260C 2450 1260 2439 1268 2437 1278C 2434 1287 2432 1277 2432 1255z" stroke="none" fill="#000000" fill-rule="nonzero" />
        <path d="M2512 1274C 2500 1253 2508 1223 2526 1216C 2538 1211 2538 1214 2525 1233C 2507 1261 2520 1285 2549 1277C 2561 1274 2568 1276 2564 1281C 2555 1296 2522 1291 2512 1274z" stroke="none" fill="#000000" fill-rule="nonzero" />
        <path d="M2587 1284C 2575 1272 2579 1233 2594 1221C 2612 1206 2633 1230 2628 1262C 2625 1284 2601 1297 2587 1284zM2618 1255C 2616 1241 2611 1229 2605 1229C 2600 1229 2594 1241 2592 1255C 2590 1273 2593 1280 2605 1280C 2617 1280 2620 1273 2618 1255z" stroke="none" fill="#000000" fill-rule="nonzero" />
        <path d="M2647 1284C 2634 1271 2640 1222 2654 1217C 2674 1209 2692 1234 2688 1262C 2685 1284 2661 1297 2647 1284zM2675 1252C 2675 1221 2656 1224 2652 1256C 2649 1274 2652 1281 2662 1278C 2669 1275 2675 1264 2675 1252z" stroke="none" fill="#000000" fill-rule="nonzero" />
        <path d="M3842 1283C 3856 1280 3857 1274 3849 1253C 3834 1214 3844 1216 3863 1255L3863 1255L3880 1290L3852 1289C 3836 1288 3832 1286 3842 1283z" stroke="none" fill="#000000" fill-rule="nonzero" />
        <path d="M3900 1265C 3893 1251 3890 1237 3893 1233C 3897 1230 3900 1234 3900 1243C 3900 1252 3905 1262 3911 1266C 3918 1270 3920 1266 3916 1252C 3912 1241 3914 1229 3920 1225C 3926 1221 3930 1232 3930 1254C 3930 1296 3919 1300 3900 1265z" stroke="none" fill="#000000" fill-rule="nonzero" />
        <path d="M3952 1255C 3952 1233 3954 1223 3957 1233C 3959 1242 3970 1250 3980 1250C 3990 1250 4001 1242 4003 1233C 4006 1223 4008 1233 4008 1255C 4008 1277 4006 1287 4003 1278C 4001 1268 3990 1260 3980 1260C 3970 1260 3959 1268 3957 1278C 3954 1287 3952 1277 3952 1255z" stroke="none" fill="#000000" fill-rule="nonzero" />
        <path d="M4030 1275C 4016 1259 4025 1224 4044 1217C 4052 1214 4066 1218 4077 1226C 4094 1240 4094 1241 4074 1231C 4058 1223 4049 1224 4041 1234C 4023 1255 4039 1283 4066 1277C 4079 1275 4087 1277 4084 1281C 4076 1295 4044 1291 4030 1275z" stroke="none" fill="#000000" fill-rule="nonzero" />
        <path d="M4107 1283C 4095 1272 4099 1233 4114 1221C 4133 1205 4154 1233 4146 1265C 4140 1289 4121 1298 4107 1283zM4135 1252C 4135 1221 4116 1224 4112 1256C 4109 1274 4112 1281 4122 1278C 4129 1275 4135 1264 4135 1252z" stroke="none" fill="#000000" fill-rule="nonzero" />
        <path d="M4167 1283C 4154 1271 4160 1222 4175 1216C 4194 1209 4213 1244 4205 1270C 4199 1290 4180 1296 4167 1283zM4195 1270C 4204 1256 4191 1218 4179 1225C 4167 1233 4167 1280 4179 1280C 4185 1280 4192 1275 4195 1270z" stroke="none" fill="#000000" fill-rule="nonzero" />
        <path d="M1688 1142C 1679 1111 1688 1090 1710 1090C 1733 1090 1743 1115 1725 1130C 1714 1139 1713 1137 1717 1121C 1720 1109 1718 1100 1712 1100C 1706 1100 1700 1115 1698 1133C 1695 1162 1694 1163 1688 1142z" stroke="none" fill="#000000" fill-rule="nonzero" />
        <path d="M6198 748L6195 685L5938 682C 5781 681 5680 683 5680 689C 5680 708 5648 730 5620 730C 5600 730 5585 722 5574 705C 5555 676 5563 645 5595 624C 5624 605 5655 613 5675 643C 5689 665 5692 665 5945 662L5945 662L6200 659L6200 545L6200 430L5945 430L5691 430L5666 455C 5626 495 5578 483 5565 428C 5560 409 5564 396 5579 381C 5607 353 5644 354 5668 385L5668 385L5688 410L5942 408L6195 405L6198 342L6201 279L6483 282C 6755 285 6767 286 6818 309C 6880 337 6932 394 6956 459C 6971 502 6975 506 7000 502C 7021 499 7031 503 7039 519C 7050 539 7057 540 7270 540C 7399 540 7490 536 7490 531C 7490 512 7522 490 7549 490C 7594 490 7625 540 7602 577C 7579 613 7507 609 7495 571C 7489 552 7480 551 7273 551C 7069 551 7056 552 7043 570C 7035 582 7017 590 7001 590C 6977 590 6971 597 6951 645C 6923 711 6863 768 6794 793C 6752 808 6707 810 6473 810L6473 810L6201 810L6198 748zM6805 766C 6901 721 6950 645 6950 543C 6950 470 6926 416 6873 369C 6800 303 6778 299 6480 302L6480 302L6215 305L6212 535C 6211 661 6212 770 6214 777C 6218 787 6280 790 6487 790C 6748 790 6756 789 6805 766zM5660 677C 5660 634 5616 614 5590 645C 5574 664 5585 707 5608 713C 5635 719 5660 702 5660 677zM7578 578C 7612 544 7572 488 7530 510C 7495 529 7510 590 7550 590C 7559 590 7571 585 7578 578zM7027 536C 7019 516 6984 515 6976 535C 6973 543 6978 557 6987 565C 7001 580 7005 580 7018 566C 7026 558 7030 544 7027 536zM5648 451C 5656 446 5660 430 5658 414C 5655 382 5620 369 5594 390C 5554 424 5603 480 5648 451z" stroke="none" fill="#000000" fill-rule="nonzero" />
        <path d="M811 748C 796 705 803 703 823 745C 832 764 836 780 831 780C 826 780 817 766 811 748z" stroke="none" fill="#000000" fill-rule="nonzero" />
        <path d="M862 760C 845 732 847 722 866 746C 881 765 881 764 875 743C 872 731 874 719 880 715C 886 711 890 722 890 744C 890 784 881 790 862 760z" stroke="none" fill="#000000" fill-rule="nonzero" />
        <path d="M911 745C 912 723 914 713 917 723C 919 732 930 740 940 740C 950 740 961 732 963 723C 966 713 968 723 968 745C 968 767 966 777 963 768C 961 758 952 750 945 750C 937 750 926 758 921 768C 913 781 911 777 911 745z" stroke="none" fill="#000000" fill-rule="nonzero" />
        <path d="M991 762C 979 739 995 710 1020 710C 1030 710 1041 714 1044 719C 1047 723 1038 725 1023 722C 999 717 998 719 1002 749C 1007 784 1005 788 991 762z" stroke="none" fill="#000000" fill-rule="nonzero" />
        <path d="M1064 766C 1054 740 1065 715 1085 715C 1107 715 1119 755 1103 771C 1097 777 1095 769 1098 750C 1101 727 1099 720 1085 720C 1071 720 1069 727 1072 750C 1077 782 1073 789 1064 766z" stroke="none" fill="#000000" fill-rule="nonzero" />
        <path d="M1127 773C 1118 764 1118 722 1128 717C 1132 714 1135 727 1135 746C 1135 765 1135 780 1134 780C 1134 780 1130 777 1127 773z" stroke="none" fill="#000000" fill-rule="nonzero" />
        <path d="M1155 745C 1155 727 1158 714 1163 717C 1167 719 1170 732 1170 745C 1170 758 1167 771 1163 773C 1158 776 1155 763 1155 745z" stroke="none" fill="#000000" fill-rule="nonzero" />
        <path d="M5420 675C 5409 649 5400 624 5400 619C 5400 604 5417 609 5424 625C 5431 645 5467 644 5479 623C 5484 613 5491 608 5495 611C 5503 620 5465 713 5451 718C 5445 720 5431 701 5420 675zM5460 669C 5460 664 5456 660 5450 660C 5445 660 5440 667 5440 676C 5440 684 5445 688 5450 685C 5456 682 5460 675 5460 669z" stroke="none" fill="#000000" fill-rule="nonzero" />
        <path d="M7694 575C 7665 531 7693 493 7755 492C 7784 491 7785 493 7783 532C 7782 554 7776 578 7769 586C 7751 608 7712 603 7694 575zM7760 549C 7760 530 7756 521 7749 526C 7743 529 7734 527 7730 520C 7724 511 7719 513 7711 528C 7696 556 7707 580 7736 580C 7756 580 7760 575 7760 549z" stroke="none" fill="#000000" fill-rule="nonzero" />
        <path d="M5410 414L5410 358L5447 365C 5487 372 5503 387 5492 405C 5488 410 5485 426 5485 440C 5485 462 5480 465 5448 468L5448 468L5410 471L5410 414zM5470 440C 5470 435 5461 430 5450 430C 5439 430 5430 435 5430 440C 5430 446 5439 450 5450 450C 5461 450 5470 446 5470 440zM5470 395C 5470 387 5461 380 5450 380C 5439 380 5430 387 5430 395C 5430 403 5439 410 5450 410C 5461 410 5470 403 5470 395z" stroke="none" fill="#000000" fill-rule="nonzero" />
        <path d="M3253 95C 3253 68 3255 57 3257 73C 3259 88 3265 100 3270 100C 3275 100 3281 88 3283 73C 3287 47 3287 47 3289 78C 3290 100 3285 110 3276 110C 3268 110 3259 118 3257 128C 3254 137 3252 123 3253 95z" stroke="none" fill="#000000" fill-rule="nonzero" />
        <path d="M3752 95C 3752 68 3754 52 3757 60C 3760 68 3770 84 3779 95C 3794 113 3794 114 3778 102C 3764 90 3761 92 3757 117C 3755 133 3753 123 3752 95z" stroke="none" fill="#000000" fill-rule="nonzero" />
        <path d="M3370 120C 3366 95 3371 66 3380 57C 3384 52 3385 60 3383 74C 3379 93 3382 100 3393 100C 3402 100 3410 90 3412 78C 3414 66 3421 55 3428 54C 3435 53 3436 54 3430 57C 3418 63 3417 97 3429 102C 3434 104 3432 111 3424 118C 3416 125 3410 126 3410 120C 3410 106 3383 107 3377 123C 3373 131 3371 131 3370 120z" stroke="none" fill="#000000" fill-rule="nonzero" />
        <path d="M3599 118C 3597 93 3602 65 3610 56C 3615 51 3616 57 3613 70C 3610 82 3612 95 3617 99C 3624 103 3623 110 3614 118C 3603 128 3600 128 3599 118z" stroke="none" fill="#000000" fill-rule="nonzero" />
        <path d="M4135 120C 4132 115 4135 113 4143 116C 4167 125 4171 104 4150 85C 4123 60 4125 50 4158 51C 4179 51 4181 53 4167 58C 4152 65 4151 68 4164 85C 4171 95 4176 110 4173 117C 4167 132 4144 134 4135 120z" stroke="none" fill="#000000" fill-rule="nonzero" />
        <path d="M4195 120C 4192 115 4195 113 4203 116C 4227 125 4231 104 4210 85C 4183 60 4185 50 4218 51C 4239 51 4241 53 4227 58C 4212 65 4211 68 4224 85C 4231 95 4236 110 4233 117C 4227 132 4204 134 4195 120z" stroke="none" fill="#000000" fill-rule="nonzero" />
        <path d="M4262 105C 4240 77 4239 75 4257 71C 4267 69 4278 63 4281 58C 4291 43 4297 72 4291 105L4291 105L4285 134L4262 105zM4276 83C 4266 73 4257 88 4266 101C 4272 112 4274 112 4278 101C 4280 94 4279 86 4276 83z" stroke="none" fill="#000000" fill-rule="nonzero" />
        <path d="M4327 123C 4349 119 4349 117 4335 90C 4313 48 4318 39 4340 80C 4365 126 4365 130 4333 129C 4309 127 4308 127 4327 123z" stroke="none" fill="#000000" fill-rule="nonzero" />
        <path d="M4375 120C 4371 114 4376 113 4386 117C 4399 122 4402 120 4397 107C 4394 98 4395 88 4401 85C 4415 76 4400 58 4383 64C 4375 67 4372 65 4375 60C 4384 46 4407 48 4413 63C 4427 101 4394 151 4375 120z" stroke="none" fill="#000000" fill-rule="nonzero" />
        <path d="M4436 122C 4434 118 4440 114 4451 114C 4461 114 4470 118 4470 122C 4470 126 4464 130 4456 130C 4448 130 4439 126 4436 122z" stroke="none" fill="#000000" fill-rule="nonzero" />
        <path d="M4507 123C 4529 119 4529 117 4515 90C 4493 48 4498 39 4520 80C 4545 126 4545 130 4513 129C 4489 127 4488 127 4507 123z" stroke="none" fill="#000000" fill-rule="nonzero" />
        <path d="M4562 105C 4540 77 4539 75 4557 71C 4567 69 4578 63 4581 58C 4591 43 4597 72 4591 105L4591 105L4585 134L4562 105zM4576 83C 4566 73 4557 88 4566 101C 4572 112 4574 112 4578 101C 4580 94 4579 86 4576 83z" stroke="none" fill="#000000" fill-rule="nonzero" />
        <path d="M4620 106C 4605 77 4612 50 4635 50C 4658 50 4666 81 4647 95C 4635 104 4633 109 4642 118C 4649 125 4650 130 4644 130C 4638 130 4628 119 4620 106zM4642 75C 4642 70 4637 64 4631 62C 4625 60 4620 66 4620 75C 4620 84 4625 90 4631 88C 4637 86 4642 80 4642 75z" stroke="none" fill="#000000" fill-rule="nonzero" />
        <path d="M4677 123C 4665 111 4670 90 4684 90C 4710 90 4712 70 4688 61C 4674 55 4671 51 4681 51C 4689 50 4701 55 4707 61C 4721 75 4713 100 4694 100C 4674 100 4677 118 4698 123C 4712 127 4712 128 4699 129C 4690 129 4680 127 4677 123z" stroke="none" fill="#000000" fill-rule="nonzero" />
        <path d="M3200 93C 3200 83 3204 79 3208 85C 3212 91 3219 98 3224 103C 3229 107 3226 110 3217 110C 3207 110 3200 102 3200 93z" stroke="none" fill="#000000" fill-rule="nonzero" />
        <path d="M3311 83C 3310 56 3314 50 3330 50C 3346 50 3350 56 3349 83C 3347 113 3347 113 3343 88C 3337 52 3323 52 3317 88C 3313 113 3313 113 3311 83z" stroke="none" fill="#000000" fill-rule="nonzero" />
        <path d="M3454 96C 3445 73 3457 50 3477 51C 3494 52 3494 53 3478 57C 3456 63 3454 80 3476 80C 3485 80 3490 85 3488 92C 3481 111 3461 113 3454 96z" stroke="none" fill="#000000" fill-rule="nonzero" />
        <path d="M3511 78C 3513 50 3513 49 3517 70C 3520 84 3527 98 3534 102C 3541 107 3539 110 3528 110C 3514 110 3510 102 3511 78z" stroke="none" fill="#000000" fill-rule="nonzero" />
        <path d="M3550 93C 3550 83 3554 79 3558 85C 3562 91 3569 98 3574 103C 3579 107 3576 110 3567 110C 3557 110 3550 102 3550 93z" stroke="none" fill="#000000" fill-rule="nonzero" />
        <path d="M3644 95C 3636 74 3646 50 3664 50C 3683 50 3693 79 3679 96C 3664 114 3651 114 3644 95zM3675 80C 3675 73 3669 65 3663 63C 3655 60 3650 67 3650 80C 3650 93 3655 100 3663 98C 3669 95 3675 87 3675 80z" stroke="none" fill="#000000" fill-rule="nonzero" />
        <path d="M3704 95C 3696 75 3706 50 3722 51C 3732 51 3732 53 3723 57C 3716 59 3710 70 3710 80C 3710 90 3716 101 3723 103C 3732 107 3732 109 3722 109C 3715 110 3707 103 3704 95z" stroke="none" fill="#000000" fill-rule="nonzero" />
        <path d="M3844 95C 3836 75 3846 50 3862 51C 3872 51 3872 53 3863 57C 3856 59 3850 70 3850 80C 3850 90 3856 101 3863 103C 3872 107 3872 109 3862 109C 3855 110 3847 103 3844 95z" stroke="none" fill="#000000" fill-rule="nonzero" />
        <path d="M3894 95C 3886 74 3896 50 3914 50C 3933 50 3943 79 3929 96C 3914 114 3901 114 3894 95zM3925 80C 3925 73 3919 65 3913 63C 3905 60 3900 67 3900 80C 3900 93 3905 100 3913 98C 3919 95 3925 87 3925 80z" stroke="none" fill="#000000" fill-rule="nonzero" />
        <path d="M3951 77C 3953 46 3953 46 3957 73C 3959 88 3965 100 3970 100C 3975 100 3981 88 3983 73L3983 73L3987 45L3989 73C 3989 88 3994 100 3999 100C 4004 100 4011 88 4013 73C 4017 46 4017 46 4019 77C 4020 106 4018 108 3985 108C 3952 108 3950 106 3951 77z" stroke="none" fill="#000000" fill-rule="nonzero" />
        <path d="M4447 82C 4423 56 4426 50 4458 51C 4474 52 4478 54 4468 57C 4454 61 4452 65 4460 81C 4473 105 4468 105 4447 82z" stroke="none" fill="#000000" fill-rule="nonzero" />
        <path d="M3212 65C 3201 53 3202 50 3215 50C 3223 50 3230 57 3230 65C 3230 83 3228 83 3212 65z" stroke="none" fill="#000000" fill-rule="nonzero" />
        <path d="M3562 65C 3551 53 3552 50 3565 50C 3573 50 3580 57 3580 65C 3580 83 3578 83 3562 65z" stroke="none" fill="#000000" fill-rule="nonzero" />
        <path d="M3770 71C 3770 66 3775 58 3780 55C 3786 52 3790 53 3790 59C 3790 64 3786 72 3780 75C 3775 78 3770 77 3770 71z" stroke="none" fill="#000000" fill-rule="nonzero" />
	</g>
</g>
</svg>